HIERARCHY
ROOT Hips
{
	OFFSET 0.0000 0.0000 0.0000
	CHANNELS 6 Xposition Yposition Zposition Zrotation Xrotation Yrotation
	JOINT Ab
	{
		OFFSET -0.0000 8.1305 -0.0000
		CHANNELS 3 Zrotation Xrotation Yrotation
		JOINT Chest
		{
			OFFSET -0.0000 26.2902 -0.0000
			CHANNELS 3 Zrotation Xrotation Yrotation
			JOINT Neck
			{
				OFFSET -0.0000 26.2902 0.0000
				CHANNELS 3 Zrotation Xrotation Yrotation
				JOINT Head
				{
					OFFSET -0.0000 10.8167 0.0000
					CHANNELS 3 Zrotation Xrotation Yrotation
					End Site
					{
						OFFSET -0.0000 16.7167 0.0000
					}
				}
			}
			JOINT LeftCollar
			{
				OFFSET -0.0000 26.2902 0.0000
				CHANNELS 3 Zrotation Xrotation Yrotation
				JOINT LeftShoulder
				{
					OFFSET 19.6667 -0.0000 0.0000
					CHANNELS 3 Zrotation Xrotation Yrotation
					JOINT LeftElbow
					{
						OFFSET 27.2190 0.0000 0.0000
						CHANNELS 3 Zrotation Xrotation Yrotation
						JOINT LeftWrist
						{
							OFFSET 30.7431 0.0000 0.0000
							CHANNELS 3 Zrotation Xrotation Yrotation
							End Site
							{
								OFFSET 0.0000 -14.7500 0.0000
							}
						}
					}
				}
			}
			JOINT RightCollar
			{
				OFFSET -0.0000 26.2902 0.0000
				CHANNELS 3 Zrotation Xrotation Yrotation
				JOINT RightShoulder
				{
					OFFSET -19.6667 0.0000 0.0000
					CHANNELS 3 Zrotation Xrotation Yrotation
					JOINT RightElbow
					{
						OFFSET -27.2190 0.0000 0.0000
						CHANNELS 3 Zrotation Xrotation Yrotation
						JOINT RightWrist
						{
							OFFSET -30.7431 0.0000 0.0000
							CHANNELS 3 Zrotation Xrotation Yrotation
							End Site
							{
								OFFSET -0.0000 -14.7500 0.0000
							}
						}
					}
				}
			}
		}
	}
	JOINT LeftHip
	{
		OFFSET 11.8000 0.0000 0.0000
		CHANNELS 3 Zrotation Xrotation Yrotation
		JOINT LeftKnee
		{
			OFFSET -0.0000 -39.7832 0.0000
			CHANNELS 3 Zrotation Xrotation Yrotation
			JOINT LeftAnkle
			{
				OFFSET -0.0000 -41.7317 0.0000
				CHANNELS 3 Zrotation Xrotation Yrotation
				End Site
				{
					OFFSET -0.0000 -4.9167 16.7167
				}
			}
		}
	}
	JOINT RightHip
	{
		OFFSET -11.8000 0.0000 0.0000
		CHANNELS 3 Zrotation Xrotation Yrotation
		JOINT RightKnee
		{
			OFFSET -0.0000 -39.7832 0.0000
			CHANNELS 3 Zrotation Xrotation Yrotation
			JOINT RightAnkle
			{
				OFFSET -0.0000 -41.7317 0.0000
				CHANNELS 3 Zrotation Xrotation Yrotation
				End Site
				{
					OFFSET -0.0000 -4.9167 16.7167
				}
			}
		}
	}
}
MOTION
Frames: 10
Frame Time: 0.010000
-19.4465 97.0122 177.1506 358.1766 357.2510 179.7894 357.8162 348.1313 359.7526 2.3507 10.5596 359.7633 358.7840 356.3698 0.9226 356.4171 3.8163 1.0811 339.9340 357.3571 14.9289 317.8972 58.2421 340.0458 9.2086 357.2022 326.3298 89.6459 357.1966 345.4681 27.3469 355.8259 342.9479 47.0331 43.6498 1.4797 339.3848 354.1924 31.2981 269.7799 354.1571 8.3435 355.3254 3.1936 1.0328 358.0416 6.0504 5.3242 356.3818 352.3916 14.1375 358.1671 5.9800 11.5074 6.3551 6.2505 8.8338 349.5433 342.7882 311.0375 
-19.4726 97.0063 177.1309 358.1799 357.2084 179.7757 357.8125 348.1130 359.7567 2.3627 10.5756 359.7614 358.7965 356.3416 0.9265 356.3804 3.8420 1.0864 339.9298 357.3456 14.9364 317.9598 58.2485 339.9726 9.2366 357.2184 326.3561 89.8949 357.1824 345.6469 27.3280 355.8480 342.9412 47.0114 43.6880 1.5577 339.3083 354.1461 31.3175 270.1711 354.0325 7.7389 355.3161 3.1613 1.0264 358.0305 6.0570 5.3259 356.3688 352.3777 14.1468 358.1539 5.9278 11.5059 6.3556 6.2925 8.8322 349.6499 342.5740 310.9881 
-19.5036 97.0044 177.1042 358.1813 357.1874 179.7664 357.8208 348.1097 359.7552 2.3485 10.5887 359.7609 358.8296 356.3321 0.9349 356.3438 3.8613 1.0947 339.9501 357.3541 14.9107 317.9178 58.2409 340.0134 9.2273 357.1879 326.3086 90.4239 357.2062 345.9171 27.3070 355.8176 342.9334 47.0423 43.7617 1.5703 339.2170 354.1260 31.2906 270.2368 354.0229 7.6387 355.3002 3.1577 0.9956 358.0211 6.0654 5.3176 356.4778 352.3562 14.1804 358.1348 5.9112 11.4913 6.3585 6.3122 8.8155 349.6167 342.6128 311.0768 
-19.5354 97.0004 177.0766 358.1829 357.1573 179.7541 357.8346 348.0918 359.7553 2.3344 10.6216 359.7583 358.8429 356.2795 0.9442 356.3182 3.9139 1.1051 339.9671 357.3579 14.9039 317.8657 58.2054 340.0570 9.2540 357.1811 326.2696 90.3436 357.2077 345.8898 27.3016 355.8422 342.9371 47.0499 43.7595 1.5805 339.2543 354.1321 31.3143 270.1843 354.0686 7.6164 355.2810 3.1539 0.9733 358.0196 6.0526 5.3260 356.4720 352.3374 14.1985 358.1110 5.8855 11.4726 6.3666 6.3419 8.8626 349.5701 342.6812 311.0602 
-19.5687 96.9965 177.0474 358.1746 357.1275 179.7494 357.8415 348.0808 359.7430 2.3081 10.6399 359.7493 358.8493 356.2272 0.9545 356.3206 3.9802 1.1181 339.9900 357.3608 14.9063 317.8376 58.1902 340.0684 9.2725 357.1689 326.2669 90.2396 357.2051 345.8395 27.3014 355.8193 342.9465 47.0627 43.7821 1.5881 339.2158 354.1121 31.3046 270.1921 354.0740 7.6519 355.2495 3.1460 0.9400 358.0193 6.0463 5.3626 356.4770 352.3179 14.1820 358.0783 5.8582 11.4318 6.3751 6.3723 8.8867 349.3545 342.7118 310.9875 
-19.6000 96.9913 177.0225 358.1766 357.0928 179.7468 357.8559 348.0727 359.7357 2.2871 10.6560 359.7381 358.8454 356.1993 0.9591 356.3274 4.0009 1.1248 339.9933 357.3661 14.9220 317.8964 58.1774 339.9999 9.2544 357.1765 326.2801 90.1847 357.2053 345.8095 27.3082 355.8356 342.9496 47.0315 43.7987 1.6223 339.2494 354.1261 31.3195 270.1818 354.0898 7.6543 355.2351 3.1300 0.9122 358.0101 6.0449 5.3557 356.4557 352.2948 14.2071 358.0572 5.8297 11.4305 6.3835 6.3874 8.8824 349.5255 342.5746 310.9959 
-19.6335 96.9874 176.9918 358.1780 357.0659 179.7330 357.8450 348.1075 359.7501 2.3192 10.5987 359.7534 358.8206 356.2372 0.9566 356.3376 3.9851 1.1216 339.9499 357.3478 14.9406 317.9992 58.2081 339.9304 9.2298 357.1919 326.3078 90.2724 357.1947 345.8713 27.2866 355.8260 342.9186 47.0176 43.8635 1.6491 339.1862 354.1163 31.2889 270.2409 354.1272 7.6788 355.2166 3.1393 0.8731 357.9978 6.0159 5.3904 356.5032 352.2919 14.2177 358.0274 5.8150 11.4596 6.4046 6.3926 8.8620 349.6643 342.4562 311.0015 
-19.6656 96.9837 176.9597 358.1826 357.0396 179.7196 357.8158 348.1589 359.7732 2.3737 10.5093 359.7807 358.8351 356.3017 0.9351 356.3181 3.9555 1.0986 339.9098 357.3420 14.9209 318.0219 58.2367 339.9607 9.1958 357.2020 326.2982 90.2963 357.1530 345.8363 27.2586 355.8198 342.8602 47.0397 43.9019 1.6438 339.1812 354.1351 31.2401 270.0135 354.1955 7.9432 355.2067 3.1525 0.8233 357.9769 5.9821 5.4274 356.5837 352.2902 14.2327 358.0069 5.7996 11.4637 6.4125 6.4063 8.8465 349.6747 342.4418 311.0481 
-19.6994 96.9790 176.9293 358.1829 357.0075 179.7116 357.8356 348.1498 359.7687 2.3378 10.5286 359.7740 358.8537 356.2747 0.9227 356.3236 3.9724 1.0865 339.9438 357.3437 14.9189 318.0318 58.2581 339.9229 9.2502 357.1903 326.3145 90.1625 357.0832 345.6923 27.2607 355.8191 342.8404 47.0557 43.9177 1.6689 339.2078 354.1504 31.2093 269.7944 354.2254 8.1700 355.1916 3.1549 0.7657 357.9571 5.9573 5.4679 356.5513 352.2753 14.2465 357.9800 5.7754 11.4539 6.4208 6.4272 8.8441 349.4873 342.5632 311.0816 
-19.7350 96.9741 176.8955 358.1855 356.9832 179.7045 357.8406 348.1450 359.7669 2.3307 10.5497 359.7777 358.8572 356.2574 0.9235 356.3198 3.9892 1.0882 339.9555 357.3488 14.9303 318.0452 58.2484 339.8876 9.2365 357.1956 326.3241 90.1428 357.0852 345.6269 27.2871 355.8220 342.8997 47.0350 43.8581 1.6215 339.2544 354.1600 31.2451 269.7849 354.2261 8.1972 355.1758 3.1694 0.7156 357.9389 5.9279 5.5110 356.5463 352.2672 14.2539 357.9527 5.7657 11.4635 6.4359 6.4333 8.8271 349.2844 342.6797 311.0701 
